<svg xmlns="http://www.w3.org/2000/svg" viewBox="0 0 64 64" width="256px" height="256px"><linearGradient id="ZhPAlwoKkQfuteSsAzkSWa" x1="32" x2="32" y1="7.875" y2="55.689" gradientUnits="userSpaceOnUse" spreadMethod="reflect"><stop offset="0" stop-color="#1a6dff"/><stop offset="1" stop-color="#c822ff"/></linearGradient><path fill="url(#ZhPAlwoKkQfuteSsAzkSWa)" d="M43,36H21V12h22V36z M23,34h18V14H23V34z"/><linearGradient id="ZhPAlwoKkQfuteSsAzkSWb" x1="32" x2="32" y1="7.875" y2="55.689" gradientUnits="userSpaceOnUse" spreadMethod="reflect"><stop offset="0" stop-color="#1a6dff"/><stop offset="1" stop-color="#c822ff"/></linearGradient><path fill="url(#ZhPAlwoKkQfuteSsAzkSWb)" d="M45,8H19c-1.159,0-2,0.841-2,2v44c0,1.159,0.841,2,2,2h26c1.159,0,2-0.841,2-2V10 C47,8.841,46.159,8,45,8z M45,54H19V10h26l0.051,43.995C45.051,53.995,45.035,54,45,54z"/><linearGradient id="ZhPAlwoKkQfuteSsAzkSWc" x1="32" x2="32" y1="7.875" y2="55.689" gradientUnits="userSpaceOnUse" spreadMethod="reflect"><stop offset="0" stop-color="#1a6dff"/><stop offset="1" stop-color="#c822ff"/></linearGradient><path fill="url(#ZhPAlwoKkQfuteSsAzkSWc)" d="M39,42H25c-2.243,0-4,1.757-4,4v2c0,2.243,1.757,4,4,4h14c2.243,0,4-1.757,4-4v-2 C43,43.757,41.243,42,39,42z M41,46h-4v-2h2C40.141,44,41,44.86,41,46z M29,46v-2h6v2H29z M35,48v2h-6v-2H35z M25,44h2v2h-4 C23,44.86,23.859,44,25,44z M23,48h4v2h-2C23.859,50,23,49.14,23,48z M39,50h-2v-2h4C41,49.14,40.141,50,39,50z"/><linearGradient id="ZhPAlwoKkQfuteSsAzkSWd" x1="32" x2="32" y1="37" y2="41" gradientUnits="userSpaceOnUse" spreadMethod="reflect"><stop offset="0" stop-color="#6dc7ff"/><stop offset="1" stop-color="#e6abff"/></linearGradient><path fill="url(#ZhPAlwoKkQfuteSsAzkSWd)" d="M32 37A2 2 0 1 0 32 41A2 2 0 1 0 32 37Z"/></svg>